Coordinates
version=1
nRows=10
nColumns=40
inDegrees=yes

Units are S.I. units (second, meters, Newtons, ...)
If the header above contains a line with 'inDegrees', this indicates whether rotational values are in degrees (yes) or radians (no).

endheader
time	pelvis_tilt	pelvis_list	pelvis_rotation	pelvis_tx	pelvis_ty	pelvis_tz	hip_flexion_r	hip_adduction_r	hip_rotation_r	knee_angle_r	knee_angle_r_beta	ankle_angle_r	subtalar_angle_r	mtp_angle_r	hip_flexion_l	hip_adduction_l	hip_rotation_l	knee_angle_l	knee_angle_l_beta	ankle_angle_l	subtalar_angle_l	mtp_angle_l	lumbar_extension	lumbar_bending	lumbar_rotation	arm_flex_r	arm_add_r	arm_rot_r	elbow_flex_r	pro_sup_r	wrist_flex_r	wrist_dev_r	arm_flex_l	arm_add_l	arm_rot_l	elbow_flex_l	pro_sup_l	wrist_flex_l	wrist_dev_l
      3.57500000	    -21.23673219	      4.18495551	     -2.38128059	     -0.32885506	      0.87652110	     -1.05418102	     16.74846136	    -10.22497478	     -6.64815351	     90.26582243	      1.57543580	    -31.53992356	      0.00000000	      0.00000000	     57.50265399	      3.81950197	    -10.45769564	     65.53437626	      1.14379064	     20.08323399	      0.00000000	      0.00000000	     -5.38603514	     -4.81580949	      3.61509808	     88.23436729	    -27.00028317	     35.70792491	     52.47042068	     85.43620823	      0.00000000	      0.00000000	     89.57420995	    -25.60246161	     42.92443611	     42.74897871	     83.25109083	      0.00000000	      0.00000000
      3.58000000	    -21.19610215	      4.35807948	     -2.41186771	     -0.32871066	      0.87553356	     -1.05443973	     16.71258243	    -10.42105804	     -6.50388454	     90.29783089	      1.57599446	    -31.67896931	      0.00000000	      0.00000000	     57.54791970	      3.93777049	    -10.63006196	     65.70971977	      1.14685096	     20.26585818	      0.00000000	      0.00000000	     -5.44918321	     -5.01545632	      3.69143624	     88.39094510	    -27.01462798	     35.93007878	     52.35790008	     85.35331245	      0.00000000	      0.00000000	     89.57855246	    -25.39401677	     42.68445958	     42.65734655	     83.23253318	      0.00000000	      0.00000000
      3.58500000	    -21.33215110	      4.20255558	     -2.33506017	     -0.32907019	      0.87435308	     -1.05444546	     16.82935688	    -10.21231829	     -6.52933373	     90.28364847	      1.57574693	    -31.72971319	      0.00000000	      0.00000000	     57.85520857	      3.86052452	    -10.47171702	     65.99855599	      1.15189210	     20.33840943	      0.00000000	      0.00000000	     -5.37308639	     -4.83599161	      3.62133219	     88.49834338	    -26.86109957	     35.83263898	     52.27122467	     85.19577982	      0.00000000	      0.00000000	     89.59792851	    -25.37334123	     42.63538667	     42.61743115	     83.04862926	      0.00000000	      0.00000000
      3.59000000	    -21.36207715	      4.23768335	     -2.29624225	     -0.32925891	      0.87335157	     -1.05464552	     16.88094705	    -10.24811373	     -6.43733252	     90.30785106	      1.57616934	    -31.83380577	      0.00000000	      0.00000000	     58.00661405	      3.95979551	    -10.38392526	     66.18475532	      1.15514189	     20.41790926	      0.00000000	      0.00000000	     -5.40849208	     -4.86829850	      3.62892376	     88.53962204	    -26.92497962	     35.60128750	     52.37228262	     85.43101972	      0.00000000	      0.00000000	     89.60407348	    -25.30697752	     42.41126811	     42.67178789	     83.68334987	      0.00000000	      0.00000000
      3.59500000	    -21.49127214	      4.18578265	     -2.23216325	     -0.32951094	      0.87216082	     -1.05472120	     17.01286001	    -10.17818823	     -6.43571055	     90.33490792	      1.57664157	    -31.85900725	      0.00000000	      0.00000000	     58.29383418	      3.96375620	    -10.28803052	     66.44382498	      1.15966351	     20.48567140	      0.00000000	      0.00000000	     -5.32075551	     -4.81190851	      3.51470579	     88.67649666	    -26.83730882	     35.89415332	     52.28638632	     84.87648323	      0.00000000	      0.00000000	     89.62467368	    -25.38581370	     42.51689230	     42.77540807	     83.04594729	      0.00000000	      0.00000000
      3.60000000	    -21.48775283	      4.17975060	     -2.18802612	     -0.32967773	      0.87119068	     -1.05479204	     16.99493638	    -10.15774184	     -6.39272997	     90.37314615	      1.57730896	    -31.79033874	      0.00000000	      0.00000000	     58.40931685	      3.99127723	    -10.26098179	     66.65246594	      1.16330499	     20.63815106	      0.00000000	      0.00000000	     -5.37795975	     -4.81115487	      3.48074525	     88.73693220	    -26.68632572	     35.56172278	     52.12582252	     85.52647417	      0.00000000	      0.00000000	     89.62964280	    -25.33567379	     42.34122940	     42.79916807	     83.10229654	      0.00000000	      0.00000000
      3.60500000	    -21.54684598	      4.22530640	     -2.17354448	     -0.32976080	      0.87019910	     -1.05486846	     17.06369703	    -10.20799518	     -6.34320047	     90.37262159	      1.57729980	    -31.73256536	      0.00000000	      0.00000000	     58.57556700	      4.02818690	    -10.28287695	     66.84447069	      1.16665610	     20.75515782	      0.00000000	      0.00000000	     -5.36103993	     -4.88745880	      3.54325837	     88.81649967	    -26.67190319	     35.57869823	     52.06787867	     85.50416875	      0.00000000	      0.00000000	     89.64064902	    -25.18184969	     42.12417738	     42.79854577	     83.68920764	      0.00000000	      0.00000000
      3.61000000	    -21.63168126	      4.18559113	     -2.07263971	     -0.32995608	      0.86903210	     -1.05505230	     17.12243271	    -10.17246100	     -6.35930938	     90.34962917	      1.57689851	    -31.78291711	      0.00000000	      0.00000000	     58.81370228	      4.09610573	    -10.15011635	     67.09750778	      1.17107243	     20.82405234	      0.00000000	      0.00000000	     -5.33215559	     -4.83779702	      3.44934142	     88.91848619	    -26.62704433	     35.62510313	     52.07309754	     85.12455974	      0.00000000	      0.00000000	     89.65612275	    -25.19614756	     42.17220484	     42.86376724	     83.23188624	      0.00000000	      0.00000000
      3.61500000	    -21.66354377	      4.12748006	     -2.06871214	     -0.33008448	      0.86802050	     -1.05505136	     17.15793738	    -10.06545315	     -6.29741836	     90.36503555	      1.57716740	    -31.96034865	      0.00000000	      0.00000000	     58.96398951	      4.03058121	    -10.13621570	     67.32281243	      1.17500474	     20.87989383	      0.00000000	      0.00000000	     -5.34515004	     -4.77114455	      3.41508819	     88.93390149	    -26.54476355	     35.43187488	     52.05826129	     85.10681292	      0.00000000	      0.00000000	     89.66223881	    -25.20051778	     42.06281384	     42.87563837	     83.23358350	      0.00000000	      0.00000000
      3.62000000	    -21.67269458	      4.21473300	     -2.08208044	     -0.33020140	      0.86700315	     -1.05507154	     17.17080759	    -10.16353188	     -6.22107386	     90.36922457	      1.57724051	    -32.00420158	      0.00000000	      0.00000000	     59.08571479	      4.05345854	    -10.24935235	     67.53452478	      1.17869982	     21.00882543	      0.00000000	      0.00000000	     -5.37669789	     -4.89014690	      3.40847502	     88.99533322	    -26.42803349	     35.20596267	     51.95624312	     85.73316417	      0.00000000	      0.00000000	     89.66783333	    -25.15793047	     41.87015704	     42.92211688	     83.18386980	      0.00000000	      0.00000000
